<svg height="24" viewBox="0 0 24 24" width="24" xmlns="http://www.w3.org/2000/svg"><path d="m20 10.999h2c0-5.13-3.873-8.999-9.01-8.999v2c4.062 0 7.01 2.943 7.01 6.999z"/><path d="m13 8c2.103 0 3 .897 3 3h2c0-3.225-1.775-5-5-5zm3.422 5.443c-.399-.363-1.015-.344-1.391.043l-2.393 2.461c-.576-.11-1.734-.471-2.926-1.66-1.192-1.193-1.553-2.354-1.66-2.926l2.459-2.394c.388-.376.406-.991.043-1.391l-3.695-4.063c-.363-.401-.98-.439-1.391-.087l-2.17 1.861c-.173.174-.276.404-.29.649-.015.25-.301 6.172 4.291 10.766 4.006 4.005 9.024 4.298 10.406 4.298.202 0 .326-.006.359-.008.245-.014.475-.117.648-.291l1.86-2.171c.353-.411.313-1.027-.086-1.391z"/></svg>